# xmcd CD database file
#
# Track frame offsets:
#	150
#	22867
#	36752
#	54592
#	69037
#	87520
#	106505
#	125242
#	137715
#	156035
#	166472
#	188345
#	213690
#	228550
#
# Disc length: 3286 seconds
#
# Revision: 0
# Processed by: cddbd v1.4PL0 Copyright (c) Steve Scherf et al.
# Submitted via: CDex 1.40Release
#
DISCID=b40cd40e
DTITLE=Cephas and Wiggins - Goin' Down' the Road Feelin' Bad
DYEAR=1980
DGENRE=Blues
TTITLE0=Black Rat Swing
TTITLE1=I'm a Pilgrim
TTITLE2=Reno Factory
TTITLE3=Guitar and Harmonica Rag
TTITLE4=Goin' Down' the Road Feelin' Bad
TTITLE5=Eyesight to the Blind
TTITLE6=Louise
TTITLE7=Chicken Can't Roost Too High for Me
TTITLE8=Pony Blues
TTITLE9=Burn Your Bridges
TTITLE10=I Ain't Got No Lovin' Baby Now
TTITLE11=West Carey Street Blues
TTITLE12=Richmond Blues
TTITLE13=Rising River Blues
EXTD=YEAR: 1980 ID3G: 0
EXTT0=
EXTT1=
EXTT2=
EXTT3=
EXTT4=
EXTT5=
EXTT6=
EXTT7=
EXTT8=
EXTT9=
EXTT10=
EXTT11=
EXTT12=
EXTT13=
PLAYORDER=
